<?xml version="1.0" encoding="UTF-8"?>
<svg xmlns="http://www.w3.org/2000/svg" xmlns:xlink="http://www.w3.org/1999/xlink" width="20px" height="20px" viewBox="0 0 20 20" version="1.1">
<g id="surface1">
<path style=" stroke:none;fill-rule:nonzero;fill:rgb(0%,0%,0%);fill-opacity:1;" d="M 0.238281 13.320312 L 7.582031 14.195312 C 7.761719 14.214844 7.828125 14.109375 7.730469 13.957031 L 6.332031 11.757812 C 6.285156 11.683594 6.269531 11.597656 6.289062 11.511719 C 6.308594 11.425781 6.359375 11.355469 6.433594 11.308594 C 6.527344 11.253906 6.621094 11.195312 6.714844 11.136719 C 6.871094 11.035156 7.039062 10.957031 7.214844 10.859375 L 7.484375 10.71875 L 7.621094 10.644531 L 7.765625 10.582031 L 8.359375 10.3125 C 8.566406 10.226562 8.78125 10.148438 9 10.0625 C 9.21875 9.972656 9.445312 9.910156 9.675781 9.835938 L 10.027344 9.726562 L 10.386719 9.636719 C 10.628906 9.578125 10.871094 9.507812 11.121094 9.46875 L 11.496094 9.398438 C 11.621094 9.371094 11.746094 9.347656 11.875 9.335938 C 12.128906 9.304688 12.382812 9.269531 12.636719 9.242188 L 13.40625 9.191406 C 13.660156 9.183594 13.914062 9.183594 14.167969 9.179688 C 14.292969 9.175781 14.417969 9.183594 14.542969 9.191406 L 14.914062 9.207031 C 15.035156 9.214844 15.160156 9.214844 15.28125 9.230469 L 15.636719 9.269531 C 15.875 9.296875 16.109375 9.3125 16.332031 9.355469 L 16.992188 9.46875 L 17.601562 9.605469 L 17.878906 9.667969 L 18.15625 9.753906 L 18.664062 9.90625 C 18.824219 9.957031 18.976562 9.996094 19.109375 10.046875 L 19.472656 10.1875 L 19.867188 10.339844 C 20.035156 10.40625 20.050781 10.375 19.902344 10.273438 L 19.550781 10.027344 L 19.21875 9.796875 C 19.097656 9.710938 18.960938 9.640625 18.820312 9.554688 L 18.359375 9.285156 L 18.113281 9.140625 L 17.828125 8.996094 L 17.242188 8.707031 L 16.59375 8.429688 C 16.371094 8.328125 16.136719 8.25 15.898438 8.164062 L 15.53125 8.03125 C 15.40625 7.988281 15.28125 7.953125 15.152344 7.914062 L 14.765625 7.800781 C 14.632812 7.761719 14.5 7.722656 14.367188 7.695312 C 14.097656 7.632812 13.824219 7.566406 13.546875 7.507812 L 12.699219 7.359375 C 12.414062 7.320312 12.125 7.292969 11.835938 7.257812 C 11.691406 7.242188 11.546875 7.230469 11.402344 7.226562 L 10.964844 7.203125 C 10.671875 7.179688 10.378906 7.1875 10.089844 7.1875 L 9.65625 7.191406 L 9.226562 7.21875 C 8.941406 7.242188 8.65625 7.25 8.378906 7.292969 C 8.101562 7.328125 7.828125 7.359375 7.5625 7.398438 L 6.78125 7.546875 L 6.589844 7.582031 L 6.40625 7.628906 L 6.042969 7.71875 C 5.808594 7.78125 5.574219 7.832031 5.359375 7.90625 C 4.925781 8.042969 4.53125 8.15625 4.160156 8.3125 L 4.152344 8.316406 C 4.148438 8.320312 4.066406 8.195312 3.96875 8.042969 L 2.613281 5.914062 C 2.515625 5.761719 2.390625 5.777344 2.335938 5.945312 L 0.015625 12.96875 C -0.0429688 13.140625 0.0585938 13.296875 0.238281 13.320312 Z M 0.238281 13.320312 "/>
</g>
</svg>
